<svg width="24" height="24" viewBox="0 0 24 24" fill="none" xmlns="http://www.w3.org/2000/svg">
<path d="M12 0.375C18.375 0.375 23.625 5.625 23.625 12C23.625 18.4219 18.375 23.625 12 23.625C5.57812 23.625 0.375 18.4219 0.375 12C0.375 5.625 5.57812 0.375 12 0.375ZM19.6406 5.76562C19.4531 6.04688 17.8125 8.15625 14.1094 9.65625C14.4844 10.4062 14.7188 10.9688 15 11.625C18.2812 11.2031 21.5625 11.8594 21.8906 11.9531C21.8906 9.60938 21.0469 7.45312 19.6406 5.76562ZM18.5625 4.59375C16.125 2.4375 12.7969 1.64062 9.65625 2.39062C9.9375 2.76562 11.7188 5.20312 13.3594 8.20312C16.875 6.89062 18.375 4.875 18.5625 4.59375ZM7.73438 3.04688C4.96875 4.35938 2.90625 6.9375 2.25 9.98438C2.71875 10.0312 6.79688 10.0312 11.4375 8.8125C9.79688 5.85938 8.01562 3.42188 7.73438 3.04688ZM2.0625 12.0469C2.0625 14.5781 3 16.9219 4.59375 18.6562C6.1875 15.9375 9.46875 13.0312 13.0781 12C12.7969 11.4375 12.5625 10.875 12.2344 10.3125C7.3125 11.8125 2.48438 11.7656 2.0625 11.7188C2.0625 11.8594 2.0625 11.9531 2.0625 12.0469ZM5.85938 19.875C8.8125 22.1719 12.6562 22.5469 15.8438 21.1875C15.7031 20.2969 15.1406 17.25 13.7344 13.6406C9.75 15 6.9375 17.7656 5.85938 19.875ZM17.5312 20.25C19.7344 18.75 21.3281 16.3594 21.7969 13.5938C21.4219 13.5 18.7031 12.7031 15.6094 13.1719C16.875 16.7812 17.4375 19.6875 17.5312 20.25Z" fill="#241F19"/>
</svg>
