<svg width="17" height="13" viewBox="0 0 17 13" fill="none" xmlns="http://www.w3.org/2000/svg">
<path d="M16.4122 0.926067C16.0913 0.374594 15.501 0 14.8171 0H8.3346V0.926067H16.4122ZM0 9.26067H16.6692V10.1867H0V9.26067ZM8.3346 5.5564H16.6692V6.48247H8.3346V5.5564ZM8.3346 3.70427H16.6692V4.63033H8.3346V3.70427ZM0 7.40853H16.6692V8.3346H0V7.40853ZM1.85213 12.0389H14.8171C15.501 12.0389 16.0913 11.6643 16.4122 11.1128H0.256984C0.577866 11.6643 1.16823 12.0389 1.85213 12.0389ZM8.3346 1.85213H16.6692V2.7782H8.3346V1.85213Z" fill="#B22334"/>
<path d="M0.0314863 10.5011C0.0393578 10.5442 0.0481555 10.5872 0.0588052 10.6294C0.0708441 10.6761 0.0856612 10.721 0.101404 10.7664C0.142614 10.8863 0.192622 11.0021 0.255594 11.1104L0.256984 11.1128H16.4122L16.4131 11.1109C16.4757 11.003 16.5257 10.8873 16.5669 10.7678C16.5826 10.722 16.5979 10.6761 16.6099 10.6284C16.6206 10.5868 16.6294 10.5442 16.6373 10.5011C16.6562 10.3992 16.6692 10.2946 16.6692 10.1867H0C0 10.2946 0.0129649 10.3988 0.0314863 10.5011ZM0 8.33456H16.6692V9.26063H0V8.33456ZM0 6.48243V7.40849H16.6692V6.48243H8.3346H0ZM8.3346 4.63029H16.6692V5.55636H8.3346V4.63029ZM8.3346 2.77816H16.6692V3.70423H8.3346V2.77816ZM0 1.85209C0 1.74421 0.013891 1.64049 0.0314863 1.53769C0.0129649 1.64002 0 1.74421 0 1.85209ZM0.0592683 1.40943C0.0708441 1.3622 0.0870503 1.31729 0.101867 1.27191C0.0861242 1.31729 0.0713071 1.36267 0.0592683 1.40943ZM8.3346 1.85209H16.6692C16.6692 1.74421 16.6562 1.63956 16.6373 1.53723C16.6294 1.49463 16.621 1.45203 16.6099 1.41036C16.5974 1.36267 16.5826 1.31636 16.5664 1.27052C16.5252 1.15106 16.4752 1.03576 16.4127 0.927878C16.4131 0.927415 16.4127 0.926488 16.4122 0.926025H8.3346V1.85209Z" fill="#EEEEEE"/>
<path d="M8.3346 0H1.85213C0.829293 0 0 0.829293 0 1.85213V6.48247H8.3346V0Z" fill="#3C3B6E"/>
<path d="M0.927734 1.26219L1.21389 1.47009L1.10461 1.80579L1.3903 1.59835L1.67646 1.80579L1.56718 1.47009L1.85334 1.26219H1.49958L1.3903 0.926025L1.28149 1.26219H0.927734ZM1.8538 2.18825L2.13996 2.39616L2.03068 2.73186L2.31637 2.52442L2.60253 2.73186L2.49325 2.39616L2.77941 2.18825H2.42565L2.31637 1.85209L2.20756 2.18825H1.8538ZM3.70594 2.18825L3.99209 2.39616L3.88281 2.73186L4.16851 2.52442L4.45466 2.73186L4.34538 2.39616L4.63154 2.18825H4.27778L4.16851 1.85209L4.05969 2.18825H3.70594ZM5.55807 2.18825L5.84422 2.39616L5.73495 2.73186L6.02064 2.52442L6.30679 2.73186L6.19752 2.39616L6.48367 2.18825H6.12991L6.02064 1.85209L5.91183 2.18825H5.55807ZM1.8538 4.04039L2.13996 4.24829L2.03068 4.58399L2.31637 4.37655L2.60253 4.58399L2.49325 4.24829L2.77941 4.04039H2.42565L2.31637 3.70423L2.20756 4.04039H1.8538ZM3.70594 4.04039L3.99209 4.24829L3.88281 4.58399L4.16851 4.37655L4.45466 4.58399L4.34538 4.24829L4.63154 4.04039H4.27778L4.16851 3.70423L4.05969 4.04039H3.70594ZM5.55807 4.04039L5.84422 4.24829L5.73495 4.58399L6.02064 4.37655L6.30679 4.58399L6.19752 4.24829L6.48367 4.04039H6.12991L6.02064 3.70423L5.91183 4.04039H5.55807ZM2.77987 1.26219L3.06602 1.47009L2.95675 1.80579L3.24244 1.59835L3.52859 1.80579L3.41932 1.47009L3.70547 1.26219H3.35171L3.24244 0.926025L3.13363 1.26219H2.77987ZM4.632 1.26219L4.91816 1.47009L4.80888 1.80579L5.09457 1.59835L5.38073 1.80579L5.27145 1.47009L5.55761 1.26219H5.20385L5.09457 0.926025L4.98576 1.26219H4.632ZM6.48414 1.26219L6.77029 1.47009L6.66101 1.80579L6.94671 1.59835L7.23286 1.80579L7.12358 1.47009L7.40974 1.26219H7.05598L6.94671 0.926025L6.83789 1.26219H6.48414ZM0.927734 3.11432L1.21389 3.32222L1.10461 3.65792L1.3903 3.45048L1.67646 3.65792L1.56718 3.32222L1.85334 3.11432H1.49958L1.3903 2.77816L1.28149 3.11432H0.927734ZM2.95675 3.65792L3.24244 3.45048L3.52859 3.65792L3.41932 3.32222L3.70547 3.11432H3.35171L3.24244 2.77816L3.13363 3.11432H2.77987L3.06602 3.32222L2.95675 3.65792ZM4.632 3.11432L4.91816 3.32222L4.80888 3.65792L5.09457 3.45048L5.38073 3.65792L5.27145 3.32222L5.55761 3.11432H5.20385L5.09457 2.77816L4.98576 3.11432H4.632ZM6.48414 3.11432L6.77029 3.32222L6.66101 3.65792L6.94671 3.45048L7.23286 3.65792L7.12358 3.32222L7.40974 3.11432H7.05598L6.94671 2.77816L6.83789 3.11432H6.48414ZM0.927734 4.96645L1.21389 5.17436L1.10461 5.51006L1.3903 5.30262L1.67646 5.51006L1.56718 5.17436L1.85334 4.96645H1.49958L1.3903 4.63029L1.28149 4.96645H0.927734ZM2.95675 5.51006L3.24244 5.30262L3.52859 5.51006L3.41932 5.17436L3.70547 4.96645H3.35171L3.24244 4.63029L3.13363 4.96645H2.77987L3.06602 5.17436L2.95675 5.51006ZM4.632 4.96645L4.91816 5.17436L4.80888 5.51006L5.09457 5.30262L5.38073 5.51006L5.27145 5.17436L5.55761 4.96645H5.20385L5.09457 4.63029L4.98576 4.96645H4.632ZM6.48414 4.96645L6.77029 5.17436L6.66101 5.51006L6.94671 5.30262L7.23286 5.51006L7.12358 5.17436L7.40974 4.96645H7.05598L6.94671 4.63029L6.83789 4.96645H6.48414Z" fill="white"/>
</svg>
