<svg width="17" height="13" viewBox="0 0 17 13" fill="none" xmlns="http://www.w3.org/2000/svg">
<path d="M16.6692 10.1867C16.6692 11.2096 15.8399 12.0389 14.8171 12.0389H1.85213C0.829293 12.0389 0 11.2096 0 10.1867V1.85213C0 0.829293 0.829293 0 1.85213 0H14.8171C15.8399 0 16.6692 0.829293 16.6692 1.85213V10.1867Z" fill="#009B3A"/>
<path d="M15.1547 6.01941L8.33518 11.1702L1.51562 6.01941L8.33518 0.868164L15.1547 6.01941Z" fill="#FEDF01"/>
<path d="M8.32425 8.97444C9.97573 8.97444 11.3145 7.63565 11.3145 5.98417C11.3145 4.33269 9.97573 2.9939 8.32425 2.9939C6.67277 2.9939 5.33398 4.33269 5.33398 5.98417C5.33398 7.63565 6.67277 8.97444 8.32425 8.97444Z" fill="#002776"/>
<path d="M5.68421 4.57793C5.53048 4.86547 5.42583 5.18126 5.37305 5.51465C7.22287 5.38037 9.73343 6.39024 10.8109 7.64228C10.9971 7.36261 11.135 7.0496 11.2198 6.71437C9.88994 5.41417 7.55393 4.57052 5.68421 4.57793Z" fill="#CBE9D4"/>
<path d="M5.55664 6.12732H6.01967V6.59035H5.55664V6.12732ZM6.01967 7.05339H6.48271V7.51642H6.01967V7.05339Z" fill="#88C9F9"/>
<path d="M6.94531 6.12736H7.40835V6.59039H6.94531V6.12736ZM7.87138 6.59039H8.33441V7.05343H7.87138V6.59039ZM9.72351 7.51646H10.1865V7.97949H9.72351V7.51646ZM8.33441 7.97949H8.79745V8.44253H8.33441V7.97949ZM9.72351 5.20129H10.1865V5.66433H9.72351V5.20129Z" fill="#55ACEE"/>
<path d="M8.79688 7.05334H9.25991V7.51638H8.79688V7.05334Z" fill="#3B88C3"/>
</svg>
