<svg width="21" height="22" viewBox="0 0 21 22" fill="none" xmlns="http://www.w3.org/2000/svg">
<path d="M18.8906 0.5C20.0156 0.5 21 1.48438 21 2.60938V19.4375C21 20.5625 20.0156 21.5 18.8906 21.5H2.0625C0.9375 21.5 0 20.5625 0 19.4375V2.60938C0 1.48438 0.9375 0.5 2.0625 0.5H18.8906ZM17.6719 7.48438C17.7188 5.51562 17.0156 4.48438 15.4219 4.48438C13.3594 4.39062 11.9062 5.5625 11.1562 8.04688C12.0938 7.625 13.5 7.53125 13.3125 9.07812C13.2656 9.59375 12.9375 10.3438 12.2812 11.375C10.5469 14.1406 10.0781 13.2031 9.14062 7.0625C8.85938 5.32812 8.10938 4.53125 6.9375 4.67188C5.90625 4.76562 4.21875 6.45312 2.48438 8L3.1875 8.89062C3.89062 8.42188 4.26562 8.1875 4.40625 8.1875C5.39062 8.1875 5.85938 10.7656 7.07812 15.125C7.6875 16.7656 8.4375 17.5625 9.32812 17.5625C10.7344 17.5625 12.5156 16.25 14.5781 13.5781C16.5469 11 17.5781 8.98438 17.6719 7.48438Z" fill="#241F19"/>
</svg>
