<svg width="16" height="16" viewBox="0 0 16 16" fill="none" xmlns="http://www.w3.org/2000/svg">
<rect width="16" height="16" rx="3" fill="#BE8F6E"/>
<path d="M5.1669 7.82326C4.60582 7.82326 4.12287 7.70963 3.71804 7.48236C3.31558 7.25271 3.00545 6.92838 2.78764 6.50934C2.56984 6.08794 2.46094 5.5896 2.46094 5.01432C2.46094 4.45324 2.56984 3.96081 2.78764 3.53704C3.00545 3.11327 3.31203 2.78302 3.70739 2.54628C4.10511 2.30953 4.5715 2.19116 5.10653 2.19116C5.46638 2.19116 5.80137 2.24916 6.11151 2.36517C6.42401 2.4788 6.69626 2.65044 6.92827 2.88008C7.16264 3.10972 7.34493 3.39855 7.47514 3.74656C7.60535 4.0922 7.67045 4.49703 7.67045 4.96105V5.37653H3.06463V4.43903H6.24645C6.24645 4.22123 6.1991 4.02828 6.1044 3.8602C6.00971 3.69211 5.87831 3.56072 5.71023 3.46602C5.54451 3.36896 5.35156 3.32042 5.13139 3.32042C4.90175 3.32042 4.69815 3.37369 4.5206 3.48022C4.34541 3.58439 4.2081 3.72525 4.10866 3.90281C4.00923 4.078 3.95833 4.27331 3.95597 4.48875V5.38008C3.95597 5.64997 4.00568 5.88316 4.10511 6.07966C4.20691 6.27615 4.35014 6.42767 4.5348 6.5342C4.71946 6.64074 4.93845 6.694 5.19176 6.694C5.35985 6.694 5.51373 6.67033 5.65341 6.62298C5.79309 6.57563 5.91264 6.50461 6.01207 6.40991C6.11151 6.31522 6.18726 6.19921 6.23935 6.0619L7.63849 6.15423C7.56747 6.4904 7.42188 6.78397 7.2017 7.03491C6.9839 7.28349 6.70218 7.47762 6.35653 7.6173C6.01326 7.75461 5.61671 7.82326 5.1669 7.82326Z" fill="white"/>
<path d="M2.68111 13.7167V8.26218H4.12287V9.22454H4.18679C4.30043 8.90494 4.48982 8.65281 4.75497 8.46815C5.02012 8.28349 5.33736 8.19116 5.70668 8.19116C6.08073 8.19116 6.39915 8.28468 6.66193 8.4717C6.92472 8.65636 7.09991 8.90731 7.1875 9.22454H7.24432C7.35559 8.91204 7.55682 8.66228 7.84801 8.47525C8.14157 8.28586 8.4884 8.19116 8.88849 8.19116C9.39749 8.19116 9.81061 8.35333 10.1278 8.67767C10.4474 8.99964 10.6072 9.45655 10.6072 10.0484V13.7167H9.09801V10.3467C9.09801 10.0437 9.01752 9.8164 8.85653 9.66488C8.69555 9.51337 8.49432 9.43761 8.25284 9.43761C7.97822 9.43761 7.76397 9.52521 7.61009 9.7004C7.4562 9.87322 7.37926 10.1017 7.37926 10.3858V13.7167H5.91264V10.3147C5.91264 10.0472 5.8357 9.83415 5.68182 9.67554C5.5303 9.51692 5.33026 9.43761 5.08168 9.43761C4.91359 9.43761 4.76207 9.48022 4.62713 9.56545C4.49456 9.64831 4.3892 9.7655 4.31108 9.91701C4.23295 10.0662 4.19389 10.2414 4.19389 10.4426V13.7167H2.68111Z" fill="white"/>
<path d="M12.6864 13.8091C12.4521 13.8091 12.2508 13.7262 12.0827 13.5605C11.917 13.3924 11.8342 13.1912 11.8342 12.9568C11.8342 12.7248 11.917 12.5259 12.0827 12.3602C12.2508 12.1945 12.4521 12.1116 12.6864 12.1116C12.9137 12.1116 13.1126 12.1945 13.283 12.3602C13.4535 12.5259 13.5387 12.7248 13.5387 12.9568C13.5387 13.113 13.4985 13.2563 13.418 13.3865C13.3398 13.5143 13.2369 13.6173 13.109 13.6954C12.9812 13.7712 12.8403 13.8091 12.6864 13.8091Z" fill="white"/>
</svg>
