<svg width="16" height="16" viewBox="0 0 16 16" fill="none" xmlns="http://www.w3.org/2000/svg">
<rect width="16" height="16" rx="3" fill="#BE8F6E"/>
<path d="M4.29958 10.3932C3.82276 10.3932 3.41234 10.2966 3.06831 10.1035C2.72629 9.90833 2.46273 9.63271 2.27764 9.2766C2.09255 8.91849 2 8.49499 2 8.0061C2 7.52929 2.09255 7.11081 2.27764 6.75069C2.46273 6.39056 2.72327 6.1099 3.05926 5.90872C3.39725 5.70753 3.79359 5.60693 4.24828 5.60693C4.55408 5.60693 4.83876 5.65622 5.10232 5.75481C5.36789 5.85138 5.59925 5.99724 5.79642 6.19239C5.9956 6.38754 6.15051 6.63299 6.26116 6.92874C6.37182 7.22247 6.42714 7.56651 6.42714 7.96083V8.31392H2.51303V7.51721H5.217C5.217 7.33212 5.17676 7.16815 5.09628 7.02531C5.01581 6.88247 4.90415 6.77081 4.76131 6.69033C4.62047 6.60784 4.45651 6.5666 4.2694 6.5666C4.07425 6.5666 3.90123 6.61187 3.75034 6.7024C3.60146 6.79093 3.48477 6.91063 3.40027 7.06152C3.31577 7.2104 3.27251 7.37638 3.2705 7.55946V8.31694C3.2705 8.54629 3.31275 8.74446 3.39725 8.91145C3.48376 9.07843 3.60548 9.20719 3.76241 9.29773C3.91933 9.38826 4.10543 9.43353 4.3207 9.43353C4.46355 9.43353 4.59432 9.41341 4.71302 9.37317C4.83172 9.33294 4.93332 9.27258 5.01782 9.1921C5.10232 9.11163 5.1667 9.01305 5.21096 8.89636L6.39998 8.97482C6.33963 9.26051 6.2159 9.50998 6.02879 9.72324C5.8437 9.93449 5.60428 10.0995 5.31055 10.2182C5.01883 10.3349 4.68184 10.3932 4.29958 10.3932Z" fill="white"/>
<path d="M7.2661 10.3027V5.66729H8.49133V6.48512H8.54565C8.64222 6.21352 8.80317 5.99925 9.02851 5.84232C9.25384 5.6854 9.52343 5.60693 9.83728 5.60693C10.1552 5.60693 10.4258 5.6864 10.6491 5.84534C10.8724 6.00227 11.0213 6.21553 11.0957 6.48512H11.144C11.2386 6.21955 11.4096 6.0073 11.657 5.84836C11.9065 5.68741 12.2012 5.60693 12.5412 5.60693C12.9738 5.60693 13.3249 5.74475 13.5945 6.02038C13.8661 6.29399 14.0019 6.68228 14.0019 7.18525V10.3027H12.7193V7.43875C12.7193 7.18123 12.6509 6.98809 12.5141 6.85933C12.3773 6.73057 12.2063 6.66619 12.0011 6.66619C11.7677 6.66619 11.5856 6.74063 11.4548 6.88951C11.3241 7.03637 11.2587 7.23052 11.2587 7.47195V10.3027H10.0123V7.41159C10.0123 7.18425 9.94693 7.00318 9.81616 6.86838C9.6874 6.73359 9.51739 6.66619 9.30615 6.66619C9.1633 6.66619 9.03454 6.7024 8.91986 6.77483C8.8072 6.84525 8.71767 6.94483 8.65128 7.07359C8.58489 7.20034 8.55169 7.34922 8.55169 7.52023V10.3027H7.2661Z" fill="white"/>
</svg>
